<svg xmlns="http://www.w3.org/2000/svg" width="26.19" height="25.526" viewBox="0 0 26.19 25.526">
  <defs>
    <style>
      .cls-1 {
        fill: #ff2626;
      }
    </style>
  </defs>
  <path id="Icon_awesome-arrow-right" data-name="Icon awesome-arrow-right" class="cls-1" d="M11.135,4.357l1.3-1.3a1.4,1.4,0,0,1,1.982,0L25.777,14.417a1.4,1.4,0,0,1,0,1.982L14.414,27.761a1.4,1.4,0,0,1-1.982,0l-1.3-1.3a1.4,1.4,0,0,1,.023-2l7.043-6.71H1.4a1.4,1.4,0,0,1-1.4-1.4v-1.87a1.4,1.4,0,0,1,1.4-1.4H18.2l-7.043-6.71A1.394,1.394,0,0,1,11.135,4.357Z" transform="translate(0 -2.647)"/>
</svg>
